<svg xmlns="http://www.w3.org/2000/svg" xmlns:xlink="http://www.w3.org/1999/xlink" width="682.75" height="577" viewBox="0 0 682.75 577">
  <defs>
    <linearGradient id="Degradado_sin_nombre_61" data-name="Degradado sin nombre 61" x1="341.92" y1="577" x2="341.92" gradientUnits="userSpaceOnUse">
      <stop offset="0" stop-color="#999"/>
      <stop offset="1" stop-color="#c4c4c4"/>
    </linearGradient>
    <linearGradient id="Degradado_sin_nombre_72" data-name="Degradado sin nombre 72" x1="490.08" y1="380.68" x2="490.08" gradientUnits="userSpaceOnUse">
      <stop offset="0" stop-color="#c7c7c7"/>
      <stop offset="0.48" stop-color="#ccc"/>
      <stop offset="1" stop-color="#d9d9d9"/>
    </linearGradient>
  </defs>
  <title>banner-contest</title>
  <rect x="1.09" width="681.66" height="577" style="opacity: 0.32;fill: url(#Degradado_sin_nombre_61)"/>
  <path d="M324.6,413a6.26,6.26,0,0,0-4.91-6.27l2.41-4.09a3.08,3.08,0,0,0-.83-4.15,3,3,0,0,0-4.15.78l-.08.13-4,6.64s-.54.84-1.21,2l-.15.23a.08.08,0,0,1-.08.07,19.61,19.61,0,0,0-2.19,5.22c-.53,3.33,2.19,6.73,2.19,6.73L293.09,450.5c-6.65,12.62-15,24.94-25.39,34.54L247.83,505l-74.51.9a18.82,18.82,0,0,0-6.12,1.21l-1,.38a34.68,34.68,0,0,0-9.06,5.22,22.45,22.45,0,0,0-5.14,6L122.69,576.4s21.76.22,28.94.53h2.53l19.22-26.68-11.46,26.68H262c.54-.23,1.36-3.33,1.36-3.33l1.06-8.23c.76-5.6,1.36-13.76,3.86-20.79,6-17.22,15.94-32,26.14-47.15a127.4,127.4,0,0,0,15-30.3l15.41-38.84c0-.08,0-.08-.07-.15l.45.15s5.67-1.29,8.16-3,3.18-5.29,3.18-5.29Z" style="fill: #ffdec7"/>
  <path d="M284.62,491.46c-4.08-5.89-12.69-11.33-12.69-11.33l-5.14,5.21a89.66,89.66,0,0,1-15,12.24l-4.16,2.72c-2.19,9.83-13.29,21.76-24.1,21.76-10.58,0-19.5-10.5-21.84-20L173,505.44a33.62,33.62,0,0,0-17,8.31c-6.57,6.35-10.12,16.93-10.12,16.93a23.08,23.08,0,0,0,8.76,15.64,61.08,61.08,0,0,0,15.49,8.61s0,0,0,.05l3.41-4.73L162.06,577h101.4l1.21-10.2c.76-5.59,1.74-16.85,4.23-23.88,6.05-17.23,21.69-39.52,21.69-39.52S286.82,494.56,284.62,491.46Z" style="fill: #fff"/>
  <path d="M453.06,50.9c-14.35,8.73-27.61,6.43-41.42,7.54-32.5,2.6-52.33,37.13-38.49,66.65,5.79,12.34,11.82,24.57,7.1,39.09-9.41,29-40.14,16.47-52.34,46.46s11.16,41.67,3.53,73.51-34,53.85-34,53.85l42.88,41.18s19.79,5.15,33.13-3.6,15.64-32.2,44.18-46.32,84.85,10.94,119.36-.82,32.16-49.13,69.74-68.34,67.1-5.54,76,4.64V0H487.28S481.57,33.54,453.06,50.9Z" style="opacity: 0.56;fill: url(#Degradado_sin_nombre_72)"/>
  <path id="Path_273" data-name="Path 273" d="M343.49,413.33,314,393.91,308.2,404l31.06,17.53a4.65,4.65,0,0,0,5.36-1.74A4.71,4.71,0,0,0,343.49,413.33Z" style="fill: #fff"/>
  <path id="Path_274" data-name="Path 274" d="M349.31,381.36,294.9,343.58l-.61,21.31a44.57,44.57,0,0,1-8.31,24.7l-.68,1.29a12.56,12.56,0,0,0,2.95,17.53l.76.53a13.62,13.62,0,0,0,18.89-3.17l2.11-3.25a34.47,34.47,0,0,1,15.65-12.17Z" style="fill: #fff"/>
  <path id="Path_275" data-name="Path 275" d="M319.23,397.38l-4.08-2.64-.15.07-6.65,9.37,3,1.74.84-1.28A39.56,39.56,0,0,1,319.23,397.38Z" style="fill: #efefef"/>
  <ellipse id="Ellipse_50" data-name="Ellipse 50" cx="324.06" cy="359.21" rx="14.89" ry="34.53" transform="translate(-156.39 415.85) rotate(-54.67)" style="fill: #00d4a1"/>
  <path id="Path_277" data-name="Path 277" d="M301,390.2a41.24,41.24,0,0,0,15.49,5.44,33.79,33.79,0,0,1,9.06-5.21l21.16-8.09c-7.4,1.36-19.57-2.72-31.28-10.95S296,353.18,294.75,345.77L294.22,365a44.25,44.25,0,0,1-2.35,13A17.3,17.3,0,0,0,301,390.2Z" style="fill: #fff"/>
  <path id="Path_278" data-name="Path 278" d="M353,373.43c-4.08,5.74-18.06,2.72-31.28-6.65S301,345.17,305.1,339.42c1.21-1.66,3.18-2.57,5.82-2.79-6.95-1.59-12.54-.91-15,2.57-4.76,6.72,4,21.08,19.57,32.11s32,14.51,36.8,7.79a8.41,8.41,0,0,0,1.13-6.35A1.4,1.4,0,0,1,353,373.43Z" style="fill: #06b788;opacity: 0.5600000023841858;isolation: isolate"/>
  <path id="Path_279" data-name="Path 279" d="M315.61,371.54a74.45,74.45,0,0,0,10.57,6.27l4.16-11.11a9,9,0,0,0-14.13-10.05L307,364.36A76,76,0,0,0,315.61,371.54Z" style="fill: #484896"/>
  <g id="Group_106" data-name="Group 106">
    <circle id="Ellipse_51" data-name="Ellipse 51" cx="324.26" cy="360.76" r="4" style="fill: #fff"/>
  </g>
  <path id="Path_280" data-name="Path 280" d="M340.09,410l-1.59,3.1a2.28,2.28,0,0,1-3.08.92h0l-12.31-7.56a2.08,2.08,0,0,1-.69-2.87h0L324,401a2.19,2.19,0,0,1,3-.76h0l12.24,7A2.16,2.16,0,0,1,340.09,410Z" style="fill: #ffdec7"/>
  <path id="Path_281" data-name="Path 281" d="M340.09,410l-1.59,3.1a2.28,2.28,0,0,1-3.08.92h0l-12.31-7.56a2.08,2.08,0,0,1-.69-2.87h0L324,401a2.19,2.19,0,0,1,3-.76h0l12.24,7A2.16,2.16,0,0,1,340.09,410Z" style="fill: #ffdec7"/>
  <g id="Group_112" data-name="Group 112">
    <circle id="Ellipse_52" data-name="Ellipse 52" cx="188.05" cy="465.84" r="8.69" style="fill: #eab39d"/>
    <circle id="Ellipse_53" data-name="Ellipse 53" cx="247.82" cy="456.32" r="8.69" style="fill: #eab39d"/>
    <circle id="Ellipse_54" data-name="Ellipse 54" cx="247.82" cy="456.32" r="5.06" style="fill: #ffcfb8"/>
    <circle id="Ellipse_55" data-name="Ellipse 55" cx="188.05" cy="465.84" r="5.06" style="fill: #ffcfb8"/>
    <path id="Path_286" data-name="Path 286" d="M215.78,504.23l17.38-2.79A21.35,21.35,0,0,0,250.85,477l-6.5-41a18.57,18.57,0,0,0-21.26-15.42H223l-22.75,3.62a18.57,18.57,0,0,0-15.42,21.26v0l6.5,41a21.3,21.3,0,0,0,24.39,17.68Z" style="fill: #ffcfb8"/>
    <path id="Path_287" data-name="Path 287" d="M248.43,476l-6.12-38.38a19.87,19.87,0,0,0-22.67-16.47l2.19-.38a19.81,19.81,0,0,1,22.67,16.47h0l6.12,38.39a22.68,22.68,0,0,1-18.78,26h0l-2.19.38A22.75,22.75,0,0,0,248.43,476Z" style="fill: #ffdfd2;opacity: 0.699999988079071;isolation: isolate"/>
    <path id="Path_288" data-name="Path 288" d="M243,461.61a9.66,9.66,0,0,1,5.51.76l1.14,6.95a6,6,0,0,1-5,6.88l-1.89.3c-.23,0-.38-.15-.3-.38a3.93,3.93,0,0,0-.38-3.4.43.43,0,0,0-.6-.12.45.45,0,0,0-.16.2c-.61,1.21-2.34,3.78-5.07,1.81-.22-.15-.38-.23-.6-.38a7.52,7.52,0,0,1-.46-1.81,9.37,9.37,0,0,1,7.66-10.79Z" style="fill: #fcb9b9;opacity: 0.800000011920929;isolation: isolate"/>
    <path id="Path_289" data-name="Path 289" d="M204.45,478.76a.47.47,0,0,0-.67,0,.34.34,0,0,0-.09.14,3.74,3.74,0,0,0,.68,3.32c.16.15,0,.38-.15.46l-2.34.38a6,6,0,0,1-6.88-5l-1.21-7.41a9.79,9.79,0,0,1,4.31-1.89A9.54,9.54,0,0,1,209,476.65a8.94,8.94,0,0,1-.07,3.18C207.17,481.11,205.28,479.6,204.45,478.76Z" style="fill: #fcb9b9;opacity: 0.800000011920929;isolation: isolate"/>
    <g id="Group_108" data-name="Group 108">
      <circle id="Ellipse_56" data-name="Ellipse 56" cx="235.13" cy="456.47" r="1.81" style="fill: #484896"/>
      <g id="Group_107" data-name="Group 107">
        <path id="Path_290" data-name="Path 290" d="M239.36,453.53c.08,0,.15-.08.23-.08a.37.37,0,0,0,.08-.52h0a5.6,5.6,0,0,0-5.36-2,5.76,5.76,0,0,0-4.31,3.25.41.41,0,1,0,.76.3,4.85,4.85,0,0,1,3.7-2.79,4.79,4.79,0,0,1,4.61,1.81C239.06,453.53,239.21,453.53,239.36,453.53Z" style="fill: #484896"/>
      </g>
    </g>
    <g id="Group_110" data-name="Group 110">
      <circle id="Ellipse_57" data-name="Ellipse 57" cx="203.62" cy="461.54" r="1.81" style="fill: #484896"/>
      <g id="Group_109" data-name="Group 109">
        <path id="Path_291" data-name="Path 291" d="M207.85,458.51c.08,0,.15-.07.23-.07a.38.38,0,0,0,.08-.52h0a5.58,5.58,0,0,0-5.36-2,5.76,5.76,0,0,0-4.31,3.25.41.41,0,1,0,.76.3,4.91,4.91,0,0,1,8.31-1A.22.22,0,0,0,207.85,458.51Z" style="fill: #484896"/>
      </g>
    </g>
    <path id="Path_292" data-name="Path 292" d="M181.25,457.91a2.1,2.1,0,0,0,2.27,1.36l1.66-.31a1.79,1.79,0,0,1,2,1.44l.53,3.55.61,4,4.53,28.48a18.08,18.08,0,0,0,20.63,15l26.07-4.15a18.08,18.08,0,0,0,15-20.63l-4.61-29-.3-1.66-1-6.12a3.44,3.44,0,0,1,.38-2.27l.23-.38c11.71-15.94,2.49-26.67.08-36.27-1.67-6.57,3.47-9.82,6.87-11.26a.46.46,0,0,0-.15-.9c-16.77-.15-25.69,3.85-29.24,6-.46.3-1-.31-.61-.69a72,72,0,0,1,6.72-7.25.49.49,0,0,0-.45-.83,46.31,46.31,0,0,0-22.22,10.73.49.49,0,0,1-.69,0,.5.5,0,0,1-.07-.58,32.1,32.1,0,0,1,5.29-6.27.49.49,0,0,0-.45-.83,40.44,40.44,0,0,0-21.46,14,.48.48,0,0,1-.83-.46,26.31,26.31,0,0,1,2.34-4.91.45.45,0,0,0-.13-.63.44.44,0,0,0-.4-.06C167.88,413.85,178.53,449.82,181.25,457.91Zm9-9.6a1.79,1.79,0,0,1,1.44-2l4.53-.76a1.64,1.64,0,0,0,1.37-1.86v0l-.53-3.25a1.69,1.69,0,0,1,1.4-1.94,1.3,1.3,0,0,1,.34,0l18.21.83a17.25,17.25,0,0,0,8-1.51l12.47-5.44a1.7,1.7,0,0,1,2.23.9,1.82,1.82,0,0,1,.11.38l.46,2.65a1.62,1.62,0,0,0,1.86,1.36h0l.53-.08a1.81,1.81,0,0,1,2,1.44l4.83,30.3a6,6,0,0,1-5,6.88l-1.89.3c-.23,0-.38-.15-.31-.38a3.86,3.86,0,0,0-.38-3.4.42.42,0,0,0-.59-.13.44.44,0,0,0-.17.21c-.6,1.2-2.34,3.77-5.06,1.81-4.23-3.1-10.35-2.27-10.35-2.27a2.86,2.86,0,0,1-1.06,3h0l-2.72.53s-2.65.83-3.17-2.42c0,0-6,1.13-9.07,5.36-2,2.73-4.39.84-5.37-.15a.47.47,0,0,0-.66,0,.71.71,0,0,0-.1.14,3.76,3.76,0,0,0,.69,3.33c.15.15,0,.38-.16.46l-2.34.37a6,6,0,0,1-6.87-5Z" style="fill: #484896"/>
    <g id="Group_111" data-name="Group 111">
      <path id="Path_293" data-name="Path 293" d="M222,476.72l2-.3a2.91,2.91,0,0,0,2-1.36,2.88,2.88,0,0,0,.3-2.49L220.47,453a.43.43,0,1,0-.83.23h0l5.89,19.57a2.48,2.48,0,0,1-.23,1.81,2.07,2.07,0,0,1-1.51,1l-2,.31a2.25,2.25,0,0,1-2.42-1.44,3.29,3.29,0,0,1-.07-1.89.43.43,0,1,0-.83-.22,3.55,3.55,0,0,0,.07,2.34A3.21,3.21,0,0,0,222,476.72Z" style="fill: #484896"/>
    </g>
    <path id="Path_294" data-name="Path 294" d="M195,478.08l-4.76-29.77a1.81,1.81,0,0,1,1.44-2l4.53-.76a1.64,1.64,0,0,0,1.37-1.86v0l-.53-3.25a1.7,1.7,0,0,1,1.4-1.95,1.94,1.94,0,0,1,.34,0l18.21.83a17.12,17.12,0,0,0,8-1.51l12.47-5.44a1.72,1.72,0,0,1,2.24.91,2.38,2.38,0,0,1,.11.38l.15,1-15,6.57a13.15,13.15,0,0,1-5.9,1.14L202,441.74a1.34,1.34,0,0,0-1.37,1.33,1.09,1.09,0,0,0,0,.18l.38,2.42a2,2,0,0,1-1.67,2.26l-3.55.53a1.37,1.37,0,0,0-1.13,1.57v0L200,483A5.79,5.79,0,0,1,195,478.08Z" style="fill: #eab39d;opacity: 0.30000001192092896;isolation: isolate"/>
    <path id="Path_295" data-name="Path 295" d="M205.88,482.92a19.27,19.27,0,0,0,12.17-.3S210.87,487.15,205.88,482.92Z" style="fill: #3b3b7f"/>
    <path id="Path_296" data-name="Path 296" d="M241.48,477.18a20.24,20.24,0,0,1-11.64,3.55C229.76,480.73,238,482.85,241.48,477.18Z" style="fill: #3b3b7f"/>
    <path id="Path_297" data-name="Path 297" d="M226.74,481l-5.67.9c-.22.08-.38.38-.15.53,1.06,1,3.85,2.88,6.12-1C227.19,481.18,227,481,226.74,481Z" style="fill: #fc8181"/>
  </g>
</svg>
